<?xml version="1.0" encoding="utf-8"?>
<!-- Generator: Adobe Illustrator 22.1.0, SVG Export Plug-In . SVG Version: 6.00 Build 0)  -->
<svg version="1.1" id="Camada_1" xmlns="http://www.w3.org/2000/svg" xmlns:xlink="http://www.w3.org/1999/xlink" x="0px" y="0px"
	 viewBox="0 0 256 72.5" style="enable-background:new 0 0 256 72.5;" xml:space="preserve">
<style type="text/css">
	.st0{fill:url(#SVGID_1_);}
	.st1{fill:url(#SVGID_2_);}
	.st2{fill:#FFFFFF;}
</style>
<linearGradient id="SVGID_1_" gradientUnits="userSpaceOnUse" x1="0" y1="36.2602" x2="72.3462" y2="36.2602">
	<stop  offset="0" style="stop-color:#F27C36"/>
	<stop  offset="1" style="stop-color:#ED485F"/>
</linearGradient>
<path class="st0" d="M68.6,24.3C62.3,20.8,25.6,1.2,24.7,0.7c-2.1-1.2-4.6-0.7-6,1.1c-1,1.3-1.6,4,0.6,6.1
	c0.7,0.7,26.3,22.9,26.3,22.9l-28.9,24c0,0,0.2-4.7,0.2-5.3c0-2.2-1.5-4.8-4.4-4.9c-2,0-3.1,0.7-4,2.1c0,0-7.2,14.2-7.9,15.8
	c-1.1,2.8-0.2,6.1,1.7,7.9c2.6,2.5,6,2.6,8.7,1.2c14.5-7.8,47.3-27.9,57.8-34.5c2.4-1.5,3.7-3.7,3.7-6.3
	C72.3,27.8,70.8,25.5,68.6,24.3z"/>
<linearGradient id="SVGID_2_" gradientUnits="userSpaceOnUse" x1="122.2813" y1="30.6446" x2="127.8581" y2="30.6446">
	<stop  offset="0" style="stop-color:#F27C36"/>
	<stop  offset="1" style="stop-color:#ED485F"/>
</linearGradient>
<path class="st1" d="M125.1,33.4c-1.5,0-2.8-1.3-2.8-2.8s1.3-2.8,2.8-2.8c1.5,0,2.8,1.3,2.8,2.8S126.6,33.4,125.1,33.4z"/>
<g>
	<path class="st2" d="M161.3,30.7c0-0.4,0-0.7,0-1.1V19.5h0c0-1.5-1.3-2.8-2.8-2.8c-1.5,0-2.8,1.2-2.8,2.8c-2.3-1.7-5.2-2.8-8.4-2.8
		c-7.7,0-14,6.3-14,14c0,7.7,6.3,14,14,14c3.1,0,6-1,8.4-2.8c0.1,1.5,1.3,2.7,2.8,2.7c1.5,0,2.8-1.3,2.8-2.8v-10
		C161.3,31.4,161.3,31.1,161.3,30.7z M147.3,39.1c-4.6,0-8.4-3.8-8.4-8.4s3.8-8.4,8.4-8.4c4.6,0,8.3,3.7,8.4,8.3v0.2
		C155.7,35.4,151.9,39.1,147.3,39.1z"/>
</g>
<path class="st2" d="M192.9,23.6c-1.2-2.1-2.9-3.8-5-5.1c-2.1-1.2-4.5-1.8-7.1-1.8c-2.6,0-4.9,0.6-7.1,1.8c-0.4,0.3-0.9,0.5-1.3,0.9
	c-0.1-1.4-1.3-2.6-2.8-2.6c-1.6,0-2.8,1.3-2.8,2.8l0,30.5c0,0.1,0,0.1,0,0.2v0.8c0,0.8,0,0.8,0,1.8c0,0,0,0,0,0.1
	c0,1.5,1.3,2.8,2.8,2.8c1.5,0,2.8-1.3,2.8-2.8c0,0,0,0,0-0.1c0,0,0-1,0-2.4c0-0.1,0-0.3,0-0.4l0-9.5c1.1,1.2,2.4,2.2,3.9,2.9
	c1.7,0.8,3.5,1.2,5.5,1.2c2.4,0,4.6-0.6,6.6-1.8c2-1.2,3.5-2.9,4.7-5c1.1-2.1,1.7-4.5,1.7-7.2C194.7,28.2,194.1,25.8,192.9,23.6z
	 M188,34.9c-0.7,1.3-1.7,2.2-3,3c-1.3,0.7-2.7,1.1-4.3,1.1c-1.6,0-3-0.4-4.3-1.1c-1.3-0.7-2.3-1.7-3-3c-0.6-1.1-1-2.3-1.1-3.6l0-1.2
	c0.1-1.3,0.4-2.6,1.1-3.7c0.7-1.3,1.7-2.3,3-3c1.3-0.7,2.7-1.1,4.3-1.1c1.6,0,3,0.4,4.3,1.1c1.3,0.7,2.3,1.7,3,3
	c0.7,1.3,1.1,2.7,1.1,4.2C189.1,32.3,188.8,33.7,188,34.9z"/>
<path class="st2" d="M226.3,23.6c-1.2-2.1-2.9-3.8-5-5.1c-2.1-1.2-4.5-1.8-7.1-1.8c-2.6,0-4.9,0.6-7.1,1.8c-0.4,0.3-0.9,0.5-1.3,0.9
	c-0.1-1.4-1.3-2.6-2.8-2.6c-1.6,0-2.8,1.3-2.8,2.8l0,30.5c0,0.1,0,0.1,0,0.2v0.8c0,0.8,0,0.8,0,1.8c0,0,0,0,0,0.1
	c0,1.5,1.3,2.8,2.8,2.8c1.5,0,2.8-1.3,2.8-2.8c0,0,0,0,0-0.1c0,0,0-1,0-2.4c0-0.1,0-0.3,0-0.4l0-9.5c1.1,1.2,2.4,2.2,3.9,2.9
	c1.7,0.8,3.5,1.2,5.5,1.2c2.4,0,4.6-0.6,6.6-1.8c2-1.2,3.5-2.9,4.7-5c1.1-2.1,1.7-4.5,1.7-7.2C228.1,28.2,227.5,25.8,226.3,23.6z
	 M221.5,34.9c-0.7,1.3-1.7,2.2-3,3c-1.3,0.7-2.7,1.1-4.3,1.1c-1.6,0-3-0.4-4.3-1.1c-1.3-0.7-2.3-1.7-3-3c-0.6-1.1-1-2.3-1.1-3.6
	l0-1.2c0.1-1.3,0.4-2.6,1.1-3.7c0.7-1.3,1.7-2.3,3-3c1.3-0.7,2.7-1.1,4.3-1.1c1.6,0,3,0.4,4.3,1.1c1.3,0.7,2.3,1.7,3,3
	c0.7,1.3,1.1,2.7,1.1,4.2C222.6,32.3,222.2,33.7,221.5,34.9z"/>
<path class="st2" d="M172,40.2"/>
<path class="st2" d="M121.5,39.9l-9.3-10l8-8.5c1.1-1.1,1-2.9-0.1-4c-1.1-1.1-2.9-1-4,0.1l-7.7,8.2l-7.7-8.2c-1.1-1.1-2.8-1.2-4-0.1
	c-1.1,1.1-1.2,2.8-0.1,4l7.9,8.5l-9.3,10c-1.1,1.1-1,2.9,0.1,4c0.5,0.5,1.2,0.8,1.9,0.8c0.7,0,1.5-0.3,2-0.9l9.1-9.7l9.1,9.7
	c0.6,0.6,1.3,0.9,2.1,0.9c0.7,0,1.4-0.3,1.9-0.8C122.5,42.8,122.6,41,121.5,39.9z"/>
<path class="st2" d="M245.9,44.6c-6.5,0.1-11.1-3.5-11.1-3.5c-1.3-1.1-1.5-2.3-0.6-3.8c0.6-1,2.3-1.7,3.9-0.7c1.4,0.9,3,2.3,6.7,2.2
	c1.4,0,5.6-0.7,5.6-2.7c0-0.8-0.2-1.5-0.7-1.9c-0.8-0.8-2.5-1.1-4.5-0.9c-3.6,0.4-5.9-0.9-7.2-2.1c-1.7-1.6-2.7-3.9-2.7-6.3
	c0-4.1,2.9-7.8,8.4-8.3c4.9-0.4,8.1,1.7,8.4,1.8c1.3,0.8,1.7,2.9,0.7,4.1c-1,1.1-2.4,1.3-3.8,0.6c-1-0.5-2.5-1-4.9-0.8
	c-2.2,0.2-3.1,1.7-3.1,2.7c0,0.8,0.3,1.6,0.9,2.1c0.6,0.6,1.6,0.8,2.8,0.7c4.7-0.5,7.4,1,8.9,2.3c1.7,1.5,2.6,3.6,2.6,6.1
	C256,41,251.7,44.6,245.9,44.6z"/>
<path class="st2" d="M172.3,40.2"/>
<g>
</g>
<g>
</g>
<g>
</g>
<g>
</g>
<g>
</g>
<g>
</g>
</svg>
